<mxfile host="app.diagrams.net" modified="2024-01-11T10:55:07.606Z" agent="Mozilla/5.0 (Windows NT 10.0; Win64; x64) AppleWebKit/537.36 (KHTML, like Gecko) Chrome/120.0.0.0 Safari/537.36" etag="gPyVn6n9WmC546RlOsJD" version="22.1.17" type="github">
  <diagram name="Page-1" id="5HL5WJhIgYEPYMv4nU8s">
    <mxGraphModel dx="891" dy="619" grid="1" gridSize="10" guides="1" tooltips="1" connect="1" arrows="1" fold="1" page="1" pageScale="1" pageWidth="850" pageHeight="1100" math="0" shadow="0">
      <root>
        <mxCell id="0" />
        <mxCell id="1" parent="0" />
        <mxCell id="3hQC-828h82AvjW6x72--50" style="edgeStyle=orthogonalEdgeStyle;rounded=0;orthogonalLoop=1;jettySize=auto;html=1;exitX=0.5;exitY=1;exitDx=0;exitDy=0;" edge="1" parent="1" source="3hQC-828h82AvjW6x72--1" target="3hQC-828h82AvjW6x72--47">
          <mxGeometry relative="1" as="geometry" />
        </mxCell>
        <mxCell id="3hQC-828h82AvjW6x72--51" style="edgeStyle=orthogonalEdgeStyle;rounded=0;orthogonalLoop=1;jettySize=auto;html=1;exitX=0.75;exitY=1;exitDx=0;exitDy=0;entryX=0.5;entryY=0;entryDx=0;entryDy=0;" edge="1" parent="1" source="3hQC-828h82AvjW6x72--1" target="3hQC-828h82AvjW6x72--45">
          <mxGeometry relative="1" as="geometry" />
        </mxCell>
        <mxCell id="3hQC-828h82AvjW6x72--85" style="edgeStyle=orthogonalEdgeStyle;rounded=0;orthogonalLoop=1;jettySize=auto;html=1;exitX=0.5;exitY=1;exitDx=0;exitDy=0;" edge="1" parent="1" source="3hQC-828h82AvjW6x72--1">
          <mxGeometry relative="1" as="geometry">
            <mxPoint x="530" y="580.8658114346591" as="targetPoint" />
          </mxGeometry>
        </mxCell>
        <mxCell id="3hQC-828h82AvjW6x72--86" style="edgeStyle=orthogonalEdgeStyle;rounded=0;orthogonalLoop=1;jettySize=auto;html=1;exitX=0.25;exitY=1;exitDx=0;exitDy=0;" edge="1" parent="1" source="3hQC-828h82AvjW6x72--1" target="3hQC-828h82AvjW6x72--52">
          <mxGeometry relative="1" as="geometry" />
        </mxCell>
        <mxCell id="3hQC-828h82AvjW6x72--1" value="Student" style="rounded=1;arcSize=10;whiteSpace=wrap;html=1;align=center;" vertex="1" parent="1">
          <mxGeometry x="470" y="530" width="100" height="40" as="geometry" />
        </mxCell>
        <mxCell id="3hQC-828h82AvjW6x72--2" value="" style="shape=link;html=1;rounded=0;" edge="1" parent="1">
          <mxGeometry relative="1" as="geometry">
            <mxPoint x="380" y="550" as="sourcePoint" />
            <mxPoint x="470" y="549.5" as="targetPoint" />
          </mxGeometry>
        </mxCell>
        <mxCell id="3hQC-828h82AvjW6x72--3" value="1" style="resizable=0;html=1;whiteSpace=wrap;align=right;verticalAlign=bottom;" connectable="0" vertex="1" parent="3hQC-828h82AvjW6x72--2">
          <mxGeometry x="1" relative="1" as="geometry" />
        </mxCell>
        <mxCell id="3hQC-828h82AvjW6x72--6" value="" style="shape=link;html=1;rounded=0;exitX=0;exitY=0.5;exitDx=0;exitDy=0;" edge="1" parent="1">
          <mxGeometry relative="1" as="geometry">
            <mxPoint x="270" y="550" as="sourcePoint" />
            <mxPoint x="200" y="549.5" as="targetPoint" />
            <Array as="points">
              <mxPoint x="200" y="549.5" />
            </Array>
          </mxGeometry>
        </mxCell>
        <mxCell id="3hQC-828h82AvjW6x72--7" value="1" style="resizable=0;html=1;whiteSpace=wrap;align=right;verticalAlign=bottom;" connectable="0" vertex="1" parent="3hQC-828h82AvjW6x72--6">
          <mxGeometry x="1" relative="1" as="geometry" />
        </mxCell>
        <mxCell id="3hQC-828h82AvjW6x72--130" value="1" style="edgeLabel;html=1;align=center;verticalAlign=middle;resizable=0;points=[];" vertex="1" connectable="0" parent="3hQC-828h82AvjW6x72--6">
          <mxGeometry x="0.6832" y="6" relative="1" as="geometry">
            <mxPoint as="offset" />
          </mxGeometry>
        </mxCell>
        <mxCell id="3hQC-828h82AvjW6x72--9" value="Fills" style="shape=rhombus;double=1;perimeter=rhombusPerimeter;whiteSpace=wrap;html=1;align=center;" vertex="1" parent="1">
          <mxGeometry x="260" y="520" width="120" height="60" as="geometry" />
        </mxCell>
        <mxCell id="3hQC-828h82AvjW6x72--16" value="" style="edgeStyle=orthogonalEdgeStyle;rounded=0;orthogonalLoop=1;jettySize=auto;html=1;" edge="1" parent="1" source="3hQC-828h82AvjW6x72--10" target="3hQC-828h82AvjW6x72--13">
          <mxGeometry relative="1" as="geometry" />
        </mxCell>
        <mxCell id="3hQC-828h82AvjW6x72--10" value="App" style="shape=ext;margin=3;double=1;whiteSpace=wrap;html=1;align=center;" vertex="1" parent="1">
          <mxGeometry x="100" y="530" width="100" height="40" as="geometry" />
        </mxCell>
        <mxCell id="3hQC-828h82AvjW6x72--12" value="" style="edgeStyle=orthogonalEdgeStyle;rounded=0;orthogonalLoop=1;jettySize=auto;html=1;" edge="1" parent="1" source="3hQC-828h82AvjW6x72--11" target="3hQC-828h82AvjW6x72--10">
          <mxGeometry relative="1" as="geometry" />
        </mxCell>
        <mxCell id="3hQC-828h82AvjW6x72--11" value="SerialNumber" style="ellipse;whiteSpace=wrap;html=1;align=center;fontStyle=4;" vertex="1" parent="1">
          <mxGeometry x="100" y="450" width="100" height="40" as="geometry" />
        </mxCell>
        <mxCell id="3hQC-828h82AvjW6x72--13" value="Division" style="ellipse;whiteSpace=wrap;html=1;align=center;" vertex="1" parent="1">
          <mxGeometry x="100" y="600" width="100" height="40" as="geometry" />
        </mxCell>
        <mxCell id="3hQC-828h82AvjW6x72--17" value="Fills" style="shape=rhombus;double=1;perimeter=rhombusPerimeter;whiteSpace=wrap;html=1;align=center;" vertex="1" parent="1">
          <mxGeometry x="620" y="340" width="120" height="60" as="geometry" />
        </mxCell>
        <mxCell id="3hQC-828h82AvjW6x72--19" value="Weight" style="ellipse;whiteSpace=wrap;html=1;align=center;" vertex="1" parent="1">
          <mxGeometry x="720" y="160" width="100" height="40" as="geometry" />
        </mxCell>
        <mxCell id="3hQC-828h82AvjW6x72--30" style="edgeStyle=orthogonalEdgeStyle;rounded=0;orthogonalLoop=1;jettySize=auto;html=1;exitX=0.5;exitY=1;exitDx=0;exitDy=0;" edge="1" parent="1" source="3hQC-828h82AvjW6x72--20">
          <mxGeometry relative="1" as="geometry">
            <mxPoint x="670.0666666666666" y="220.0333333333333" as="targetPoint" />
          </mxGeometry>
        </mxCell>
        <mxCell id="3hQC-828h82AvjW6x72--20" value="height" style="ellipse;whiteSpace=wrap;html=1;align=center;" vertex="1" parent="1">
          <mxGeometry x="640" y="120" width="100" height="40" as="geometry" />
        </mxCell>
        <mxCell id="3hQC-828h82AvjW6x72--29" style="edgeStyle=orthogonalEdgeStyle;rounded=0;orthogonalLoop=1;jettySize=auto;html=1;exitX=1;exitY=1;exitDx=0;exitDy=0;" edge="1" parent="1" source="3hQC-828h82AvjW6x72--25">
          <mxGeometry relative="1" as="geometry">
            <mxPoint x="670.0666666666666" y="220.0333333333333" as="targetPoint" />
          </mxGeometry>
        </mxCell>
        <mxCell id="3hQC-828h82AvjW6x72--25" value="Allergy" style="ellipse;shape=doubleEllipse;margin=3;whiteSpace=wrap;html=1;align=center;" vertex="1" parent="1">
          <mxGeometry x="530" y="140" width="100" height="40" as="geometry" />
        </mxCell>
        <mxCell id="3hQC-828h82AvjW6x72--27" style="edgeStyle=orthogonalEdgeStyle;rounded=0;orthogonalLoop=1;jettySize=auto;html=1;exitX=1;exitY=0.5;exitDx=0;exitDy=0;" edge="1" parent="1" source="3hQC-828h82AvjW6x72--26">
          <mxGeometry relative="1" as="geometry">
            <mxPoint x="670" y="250" as="targetPoint" />
          </mxGeometry>
        </mxCell>
        <mxCell id="3hQC-828h82AvjW6x72--26" value="Diseas" style="ellipse;shape=doubleEllipse;margin=3;whiteSpace=wrap;html=1;align=center;" vertex="1" parent="1">
          <mxGeometry x="500" y="190" width="100" height="40" as="geometry" />
        </mxCell>
        <mxCell id="3hQC-828h82AvjW6x72--31" style="edgeStyle=orthogonalEdgeStyle;rounded=0;orthogonalLoop=1;jettySize=auto;html=1;exitX=0.5;exitY=1;exitDx=0;exitDy=0;" edge="1" parent="1" source="3hQC-828h82AvjW6x72--19">
          <mxGeometry relative="1" as="geometry">
            <mxPoint x="670.0666666666666" y="220.0333333333333" as="targetPoint" />
            <Array as="points">
              <mxPoint x="770" y="220" />
              <mxPoint x="700" y="220" />
              <mxPoint x="700" y="200" />
              <mxPoint x="670" y="200" />
            </Array>
          </mxGeometry>
        </mxCell>
        <mxCell id="3hQC-828h82AvjW6x72--37" value="MedicalReport" style="shape=ext;margin=3;double=1;whiteSpace=wrap;html=1;align=center;" vertex="1" parent="1">
          <mxGeometry x="620" y="240" width="100" height="40" as="geometry" />
        </mxCell>
        <mxCell id="3hQC-828h82AvjW6x72--38" value="" style="shape=link;html=1;rounded=0;entryX=0.5;entryY=1;entryDx=0;entryDy=0;" edge="1" parent="1" source="3hQC-828h82AvjW6x72--17" target="3hQC-828h82AvjW6x72--37">
          <mxGeometry relative="1" as="geometry">
            <mxPoint x="620" y="370" as="sourcePoint" />
            <mxPoint x="780" y="370" as="targetPoint" />
          </mxGeometry>
        </mxCell>
        <mxCell id="3hQC-828h82AvjW6x72--39" value="1" style="resizable=0;html=1;whiteSpace=wrap;align=right;verticalAlign=bottom;" connectable="0" vertex="1" parent="3hQC-828h82AvjW6x72--38">
          <mxGeometry x="1" relative="1" as="geometry">
            <mxPoint y="20" as="offset" />
          </mxGeometry>
        </mxCell>
        <mxCell id="3hQC-828h82AvjW6x72--40" value="" style="shape=link;html=1;rounded=0;entryX=0.5;entryY=1;entryDx=0;entryDy=0;exitX=0.591;exitY=0.005;exitDx=0;exitDy=0;exitPerimeter=0;" edge="1" parent="1" source="3hQC-828h82AvjW6x72--1" target="3hQC-828h82AvjW6x72--17">
          <mxGeometry relative="1" as="geometry">
            <mxPoint x="543.58" y="520.42" as="sourcePoint" />
            <mxPoint x="536.58" y="458.42" as="targetPoint" />
          </mxGeometry>
        </mxCell>
        <mxCell id="3hQC-828h82AvjW6x72--41" value="1" style="resizable=0;html=1;whiteSpace=wrap;align=right;verticalAlign=bottom;" connectable="0" vertex="1" parent="3hQC-828h82AvjW6x72--40">
          <mxGeometry x="1" relative="1" as="geometry">
            <mxPoint x="-141" y="120" as="offset" />
          </mxGeometry>
        </mxCell>
        <mxCell id="3hQC-828h82AvjW6x72--44" value="Name" style="ellipse;whiteSpace=wrap;html=1;align=center;" vertex="1" parent="1">
          <mxGeometry x="360" y="570" width="100" height="40" as="geometry" />
        </mxCell>
        <mxCell id="3hQC-828h82AvjW6x72--45" value="SerailNumber" style="ellipse;whiteSpace=wrap;html=1;align=center;fontStyle=4;" vertex="1" parent="1">
          <mxGeometry x="520" y="620" width="100" height="40" as="geometry" />
        </mxCell>
        <mxCell id="3hQC-828h82AvjW6x72--46" value="Genar" style="ellipse;whiteSpace=wrap;html=1;align=center;" vertex="1" parent="1">
          <mxGeometry x="325" y="650" width="100" height="40" as="geometry" />
        </mxCell>
        <mxCell id="3hQC-828h82AvjW6x72--47" value="DateOfBirth" style="ellipse;whiteSpace=wrap;html=1;align=center;" vertex="1" parent="1">
          <mxGeometry x="440" y="650" width="100" height="40" as="geometry" />
        </mxCell>
        <mxCell id="3hQC-828h82AvjW6x72--48" style="edgeStyle=orthogonalEdgeStyle;rounded=0;orthogonalLoop=1;jettySize=auto;html=1;exitX=0;exitY=1;exitDx=0;exitDy=0;entryX=0.955;entryY=0.131;entryDx=0;entryDy=0;entryPerimeter=0;" edge="1" parent="1" source="3hQC-828h82AvjW6x72--1" target="3hQC-828h82AvjW6x72--44">
          <mxGeometry relative="1" as="geometry" />
        </mxCell>
        <mxCell id="3hQC-828h82AvjW6x72--49" style="edgeStyle=orthogonalEdgeStyle;rounded=0;orthogonalLoop=1;jettySize=auto;html=1;exitX=0.25;exitY=1;exitDx=0;exitDy=0;entryX=0.97;entryY=0.258;entryDx=0;entryDy=0;entryPerimeter=0;" edge="1" parent="1" source="3hQC-828h82AvjW6x72--1" target="3hQC-828h82AvjW6x72--46">
          <mxGeometry relative="1" as="geometry">
            <Array as="points">
              <mxPoint x="480" y="570" />
              <mxPoint x="480" y="620" />
              <mxPoint x="422" y="620" />
            </Array>
          </mxGeometry>
        </mxCell>
        <mxCell id="3hQC-828h82AvjW6x72--52" value="Age" style="ellipse;whiteSpace=wrap;html=1;align=center;dashed=1;" vertex="1" parent="1">
          <mxGeometry x="390" y="700" width="100" height="40" as="geometry" />
        </mxCell>
        <mxCell id="3hQC-828h82AvjW6x72--57" style="edgeStyle=orthogonalEdgeStyle;rounded=0;orthogonalLoop=1;jettySize=auto;html=1;exitX=0;exitY=0;exitDx=0;exitDy=0;entryX=1;entryY=0;entryDx=0;entryDy=0;" edge="1" parent="1" source="3hQC-828h82AvjW6x72--55" target="3hQC-828h82AvjW6x72--1">
          <mxGeometry relative="1" as="geometry" />
        </mxCell>
        <mxCell id="3hQC-828h82AvjW6x72--59" value="M" style="edgeLabel;html=1;align=center;verticalAlign=middle;resizable=0;points=[];" vertex="1" connectable="0" parent="3hQC-828h82AvjW6x72--57">
          <mxGeometry x="-0.6235" y="-2" relative="1" as="geometry">
            <mxPoint as="offset" />
          </mxGeometry>
        </mxCell>
        <mxCell id="3hQC-828h82AvjW6x72--55" value="Siblling" style="shape=rhombus;perimeter=rhombusPerimeter;whiteSpace=wrap;html=1;align=center;" vertex="1" parent="1">
          <mxGeometry x="660" y="500" width="120" height="60" as="geometry" />
        </mxCell>
        <mxCell id="3hQC-828h82AvjW6x72--56" style="edgeStyle=orthogonalEdgeStyle;rounded=0;orthogonalLoop=1;jettySize=auto;html=1;exitX=1;exitY=0.25;exitDx=0;exitDy=0;entryX=0.168;entryY=0.75;entryDx=0;entryDy=0;entryPerimeter=0;" edge="1" parent="1" source="3hQC-828h82AvjW6x72--1" target="3hQC-828h82AvjW6x72--55">
          <mxGeometry relative="1" as="geometry" />
        </mxCell>
        <mxCell id="3hQC-828h82AvjW6x72--58" value="M" style="edgeLabel;html=1;align=center;verticalAlign=middle;resizable=0;points=[];" vertex="1" connectable="0" parent="3hQC-828h82AvjW6x72--56">
          <mxGeometry x="0.5913" y="-1" relative="1" as="geometry">
            <mxPoint as="offset" />
          </mxGeometry>
        </mxCell>
        <mxCell id="3hQC-828h82AvjW6x72--61" value="" style="edgeStyle=orthogonalEdgeStyle;rounded=0;orthogonalLoop=1;jettySize=auto;html=1;" edge="1" parent="1" source="3hQC-828h82AvjW6x72--60" target="3hQC-828h82AvjW6x72--55">
          <mxGeometry relative="1" as="geometry" />
        </mxCell>
        <mxCell id="3hQC-828h82AvjW6x72--60" value="Discount" style="ellipse;whiteSpace=wrap;html=1;align=center;dashed=1;" vertex="1" parent="1">
          <mxGeometry x="820" y="520" width="100" height="40" as="geometry" />
        </mxCell>
        <mxCell id="3hQC-828h82AvjW6x72--62" value="Parent" style="shape=ext;margin=3;double=1;whiteSpace=wrap;html=1;align=center;" vertex="1" parent="1">
          <mxGeometry x="230" y="200" width="100" height="40" as="geometry" />
        </mxCell>
        <mxCell id="3hQC-828h82AvjW6x72--63" value="Has" style="shape=rhombus;double=1;perimeter=rhombusPerimeter;whiteSpace=wrap;html=1;align=center;" vertex="1" parent="1">
          <mxGeometry x="305" y="330" width="120" height="60" as="geometry" />
        </mxCell>
        <mxCell id="3hQC-828h82AvjW6x72--64" value="" style="shape=link;html=1;rounded=0;entryX=0.169;entryY=-0.034;entryDx=0;entryDy=0;entryPerimeter=0;" edge="1" parent="1" target="3hQC-828h82AvjW6x72--1">
          <mxGeometry relative="1" as="geometry">
            <mxPoint x="360" y="390" as="sourcePoint" />
            <mxPoint x="520" y="390" as="targetPoint" />
          </mxGeometry>
        </mxCell>
        <mxCell id="3hQC-828h82AvjW6x72--65" value="M" style="resizable=0;html=1;whiteSpace=wrap;align=right;verticalAlign=bottom;" connectable="0" vertex="1" parent="3hQC-828h82AvjW6x72--64">
          <mxGeometry x="1" relative="1" as="geometry" />
        </mxCell>
        <mxCell id="3hQC-828h82AvjW6x72--66" value="" style="shape=link;html=1;rounded=0;entryX=0.5;entryY=0;entryDx=0;entryDy=0;exitX=0.5;exitY=1;exitDx=0;exitDy=0;" edge="1" parent="1" source="3hQC-828h82AvjW6x72--62" target="3hQC-828h82AvjW6x72--63">
          <mxGeometry relative="1" as="geometry">
            <mxPoint x="265" y="250" as="sourcePoint" />
            <mxPoint x="425" y="250" as="targetPoint" />
          </mxGeometry>
        </mxCell>
        <mxCell id="3hQC-828h82AvjW6x72--76" value="M" style="edgeLabel;html=1;align=center;verticalAlign=middle;resizable=0;points=[];" vertex="1" connectable="0" parent="3hQC-828h82AvjW6x72--66">
          <mxGeometry x="-0.7279" y="-1" relative="1" as="geometry">
            <mxPoint as="offset" />
          </mxGeometry>
        </mxCell>
        <mxCell id="3hQC-828h82AvjW6x72--70" style="edgeStyle=orthogonalEdgeStyle;rounded=0;orthogonalLoop=1;jettySize=auto;html=1;exitX=0.5;exitY=1;exitDx=0;exitDy=0;entryX=0.75;entryY=0;entryDx=0;entryDy=0;" edge="1" parent="1" source="3hQC-828h82AvjW6x72--69" target="3hQC-828h82AvjW6x72--62">
          <mxGeometry relative="1" as="geometry" />
        </mxCell>
        <mxCell id="3hQC-828h82AvjW6x72--69" value="ID" style="ellipse;whiteSpace=wrap;html=1;align=center;fontStyle=4;" vertex="1" parent="1">
          <mxGeometry x="260" y="100" width="100" height="40" as="geometry" />
        </mxCell>
        <mxCell id="3hQC-828h82AvjW6x72--73" style="edgeStyle=orthogonalEdgeStyle;rounded=0;orthogonalLoop=1;jettySize=auto;html=1;exitX=1;exitY=1;exitDx=0;exitDy=0;" edge="1" parent="1" source="3hQC-828h82AvjW6x72--71" target="3hQC-828h82AvjW6x72--62">
          <mxGeometry relative="1" as="geometry" />
        </mxCell>
        <mxCell id="3hQC-828h82AvjW6x72--71" value="Relation" style="ellipse;whiteSpace=wrap;html=1;align=center;" vertex="1" parent="1">
          <mxGeometry x="150" y="100" width="100" height="40" as="geometry" />
        </mxCell>
        <mxCell id="3hQC-828h82AvjW6x72--75" style="edgeStyle=orthogonalEdgeStyle;rounded=0;orthogonalLoop=1;jettySize=auto;html=1;exitX=1;exitY=1;exitDx=0;exitDy=0;entryX=0;entryY=0.5;entryDx=0;entryDy=0;" edge="1" parent="1" source="3hQC-828h82AvjW6x72--74" target="3hQC-828h82AvjW6x72--62">
          <mxGeometry relative="1" as="geometry" />
        </mxCell>
        <mxCell id="3hQC-828h82AvjW6x72--74" value="Name" style="ellipse;whiteSpace=wrap;html=1;align=center;" vertex="1" parent="1">
          <mxGeometry x="80" y="160" width="100" height="40" as="geometry" />
        </mxCell>
        <mxCell id="3hQC-828h82AvjW6x72--95" value="" style="edgeStyle=orthogonalEdgeStyle;rounded=0;orthogonalLoop=1;jettySize=auto;html=1;" edge="1" parent="1" source="3hQC-828h82AvjW6x72--77" target="3hQC-828h82AvjW6x72--93">
          <mxGeometry relative="1" as="geometry">
            <Array as="points">
              <mxPoint x="940" y="910" />
              <mxPoint x="940" y="910" />
            </Array>
          </mxGeometry>
        </mxCell>
        <mxCell id="3hQC-828h82AvjW6x72--100" value="M" style="edgeLabel;html=1;align=center;verticalAlign=middle;resizable=0;points=[];" vertex="1" connectable="0" parent="3hQC-828h82AvjW6x72--95">
          <mxGeometry x="-0.5534" y="1" relative="1" as="geometry">
            <mxPoint as="offset" />
          </mxGeometry>
        </mxCell>
        <mxCell id="3hQC-828h82AvjW6x72--113" style="edgeStyle=orthogonalEdgeStyle;rounded=0;orthogonalLoop=1;jettySize=auto;html=1;exitX=0.25;exitY=1;exitDx=0;exitDy=0;" edge="1" parent="1" source="3hQC-828h82AvjW6x72--77" target="3hQC-828h82AvjW6x72--81">
          <mxGeometry relative="1" as="geometry" />
        </mxCell>
        <mxCell id="3hQC-828h82AvjW6x72--114" style="edgeStyle=orthogonalEdgeStyle;rounded=0;orthogonalLoop=1;jettySize=auto;html=1;exitX=0;exitY=0.5;exitDx=0;exitDy=0;entryX=1;entryY=0.5;entryDx=0;entryDy=0;" edge="1" parent="1" source="3hQC-828h82AvjW6x72--77" target="3hQC-828h82AvjW6x72--82">
          <mxGeometry relative="1" as="geometry" />
        </mxCell>
        <mxCell id="3hQC-828h82AvjW6x72--116" style="edgeStyle=orthogonalEdgeStyle;rounded=0;orthogonalLoop=1;jettySize=auto;html=1;exitX=0;exitY=0;exitDx=0;exitDy=0;entryX=1;entryY=0.5;entryDx=0;entryDy=0;" edge="1" parent="1" source="3hQC-828h82AvjW6x72--77" target="3hQC-828h82AvjW6x72--80">
          <mxGeometry relative="1" as="geometry" />
        </mxCell>
        <mxCell id="3hQC-828h82AvjW6x72--117" value="" style="edgeStyle=orthogonalEdgeStyle;rounded=0;orthogonalLoop=1;jettySize=auto;html=1;" edge="1" parent="1" source="3hQC-828h82AvjW6x72--77" target="3hQC-828h82AvjW6x72--82">
          <mxGeometry relative="1" as="geometry" />
        </mxCell>
        <mxCell id="3hQC-828h82AvjW6x72--77" value="teacher&amp;nbsp;" style="rounded=1;arcSize=10;whiteSpace=wrap;html=1;align=center;" vertex="1" parent="1">
          <mxGeometry x="890" y="930" width="100" height="40" as="geometry" />
        </mxCell>
        <mxCell id="3hQC-828h82AvjW6x72--78" value="Name" style="ellipse;whiteSpace=wrap;html=1;align=center;" vertex="1" parent="1">
          <mxGeometry x="710" y="830" width="100" height="40" as="geometry" />
        </mxCell>
        <mxCell id="3hQC-828h82AvjW6x72--79" value="ID" style="ellipse;whiteSpace=wrap;html=1;align=center;fontStyle=4;" vertex="1" parent="1">
          <mxGeometry x="820" y="850" width="100" height="40" as="geometry" />
        </mxCell>
        <mxCell id="3hQC-828h82AvjW6x72--80" value="subject" style="ellipse;whiteSpace=wrap;html=1;align=center;" vertex="1" parent="1">
          <mxGeometry x="700" y="890" width="100" height="40" as="geometry" />
        </mxCell>
        <mxCell id="3hQC-828h82AvjW6x72--81" value="eamil" style="ellipse;whiteSpace=wrap;html=1;align=center;" vertex="1" parent="1">
          <mxGeometry x="780" y="1010" width="100" height="40" as="geometry" />
        </mxCell>
        <mxCell id="3hQC-828h82AvjW6x72--82" value="Salary" style="ellipse;whiteSpace=wrap;html=1;align=center;" vertex="1" parent="1">
          <mxGeometry x="740" y="950" width="100" height="40" as="geometry" />
        </mxCell>
        <mxCell id="3hQC-828h82AvjW6x72--84" value="phone" style="ellipse;whiteSpace=wrap;html=1;align=center;" vertex="1" parent="1">
          <mxGeometry x="890" y="1030" width="100" height="40" as="geometry" />
        </mxCell>
        <mxCell id="3hQC-828h82AvjW6x72--92" value="" style="edgeStyle=orthogonalEdgeStyle;rounded=0;orthogonalLoop=1;jettySize=auto;html=1;" edge="1" parent="1" source="3hQC-828h82AvjW6x72--90" target="3hQC-828h82AvjW6x72--91">
          <mxGeometry relative="1" as="geometry">
            <Array as="points">
              <mxPoint x="880" y="680" />
              <mxPoint x="880" y="680" />
            </Array>
          </mxGeometry>
        </mxCell>
        <mxCell id="3hQC-828h82AvjW6x72--98" value="1" style="edgeLabel;html=1;align=center;verticalAlign=middle;resizable=0;points=[];" vertex="1" connectable="0" parent="3hQC-828h82AvjW6x72--92">
          <mxGeometry x="0.3287" y="-1" relative="1" as="geometry">
            <mxPoint x="-1" as="offset" />
          </mxGeometry>
        </mxCell>
        <mxCell id="3hQC-828h82AvjW6x72--90" value="Belongs To" style="shape=rhombus;perimeter=rhombusPerimeter;whiteSpace=wrap;html=1;align=center;" vertex="1" parent="1">
          <mxGeometry x="720" y="650" width="120" height="60" as="geometry" />
        </mxCell>
        <mxCell id="3hQC-828h82AvjW6x72--94" value="" style="edgeStyle=orthogonalEdgeStyle;rounded=0;orthogonalLoop=1;jettySize=auto;html=1;" edge="1" parent="1" source="3hQC-828h82AvjW6x72--91" target="3hQC-828h82AvjW6x72--93">
          <mxGeometry relative="1" as="geometry" />
        </mxCell>
        <mxCell id="3hQC-828h82AvjW6x72--99" value="M" style="edgeLabel;html=1;align=center;verticalAlign=middle;resizable=0;points=[];" vertex="1" connectable="0" parent="3hQC-828h82AvjW6x72--94">
          <mxGeometry x="-0.4615" y="1" relative="1" as="geometry">
            <mxPoint as="offset" />
          </mxGeometry>
        </mxCell>
        <mxCell id="3hQC-828h82AvjW6x72--91" value="Class" style="whiteSpace=wrap;html=1;align=center;" vertex="1" parent="1">
          <mxGeometry x="910" y="660" width="100" height="40" as="geometry" />
        </mxCell>
        <mxCell id="3hQC-828h82AvjW6x72--93" value="Attends" style="rhombus;whiteSpace=wrap;html=1;" vertex="1" parent="1">
          <mxGeometry x="900" y="760" width="80" height="80" as="geometry" />
        </mxCell>
        <mxCell id="3hQC-828h82AvjW6x72--96" value="" style="shape=link;html=1;rounded=0;entryX=1;entryY=1;entryDx=0;entryDy=0;exitX=0.083;exitY=0.333;exitDx=0;exitDy=0;exitPerimeter=0;" edge="1" parent="1" source="3hQC-828h82AvjW6x72--90" target="3hQC-828h82AvjW6x72--1">
          <mxGeometry relative="1" as="geometry">
            <mxPoint x="680" y="630" as="sourcePoint" />
            <mxPoint x="840" y="630" as="targetPoint" />
          </mxGeometry>
        </mxCell>
        <mxCell id="3hQC-828h82AvjW6x72--97" value="M" style="resizable=0;html=1;whiteSpace=wrap;align=right;verticalAlign=bottom;" connectable="0" vertex="1" parent="3hQC-828h82AvjW6x72--96">
          <mxGeometry x="1" relative="1" as="geometry">
            <mxPoint x="20" y="10" as="offset" />
          </mxGeometry>
        </mxCell>
        <mxCell id="3hQC-828h82AvjW6x72--101" value="SuperVioser" style="rhombus;whiteSpace=wrap;html=1;rounded=1;arcSize=10;" vertex="1" parent="1">
          <mxGeometry x="1080" y="910" width="80" height="80" as="geometry" />
        </mxCell>
        <mxCell id="3hQC-828h82AvjW6x72--104" value="" style="shape=link;html=1;rounded=0;entryX=1;entryY=0.5;entryDx=0;entryDy=0;exitX=0;exitY=0.5;exitDx=0;exitDy=0;" edge="1" parent="1" source="3hQC-828h82AvjW6x72--101" target="3hQC-828h82AvjW6x72--77">
          <mxGeometry relative="1" as="geometry">
            <mxPoint x="680" y="880" as="sourcePoint" />
            <mxPoint x="840" y="880" as="targetPoint" />
          </mxGeometry>
        </mxCell>
        <mxCell id="3hQC-828h82AvjW6x72--105" value="M" style="resizable=0;html=1;whiteSpace=wrap;align=right;verticalAlign=bottom;" connectable="0" vertex="1" parent="3hQC-828h82AvjW6x72--104">
          <mxGeometry x="1" relative="1" as="geometry">
            <mxPoint x="20" as="offset" />
          </mxGeometry>
        </mxCell>
        <mxCell id="3hQC-828h82AvjW6x72--106" value="" style="endArrow=classic;html=1;rounded=0;exitX=0;exitY=1;exitDx=0;exitDy=0;entryX=0.873;entryY=1.082;entryDx=0;entryDy=0;entryPerimeter=0;" edge="1" parent="1" source="3hQC-828h82AvjW6x72--101" target="3hQC-828h82AvjW6x72--77">
          <mxGeometry width="50" height="50" relative="1" as="geometry">
            <mxPoint x="740" y="910" as="sourcePoint" />
            <mxPoint x="790" y="860" as="targetPoint" />
            <Array as="points">
              <mxPoint x="1040" y="990" />
            </Array>
          </mxGeometry>
        </mxCell>
        <mxCell id="3hQC-828h82AvjW6x72--108" value="1" style="edgeLabel;html=1;align=center;verticalAlign=middle;resizable=0;points=[];" vertex="1" connectable="0" parent="3hQC-828h82AvjW6x72--106">
          <mxGeometry x="-0.6101" y="2" relative="1" as="geometry">
            <mxPoint as="offset" />
          </mxGeometry>
        </mxCell>
        <mxCell id="3hQC-828h82AvjW6x72--110" style="edgeStyle=orthogonalEdgeStyle;rounded=0;orthogonalLoop=1;jettySize=auto;html=1;exitX=0.25;exitY=0;exitDx=0;exitDy=0;entryX=0.691;entryY=1.087;entryDx=0;entryDy=0;entryPerimeter=0;" edge="1" parent="1" source="3hQC-828h82AvjW6x72--77" target="3hQC-828h82AvjW6x72--79">
          <mxGeometry relative="1" as="geometry" />
        </mxCell>
        <mxCell id="3hQC-828h82AvjW6x72--112" style="edgeStyle=orthogonalEdgeStyle;rounded=0;orthogonalLoop=1;jettySize=auto;html=1;exitX=0.75;exitY=1;exitDx=0;exitDy=0;entryX=0.696;entryY=0.063;entryDx=0;entryDy=0;entryPerimeter=0;" edge="1" parent="1" source="3hQC-828h82AvjW6x72--77" target="3hQC-828h82AvjW6x72--84">
          <mxGeometry relative="1" as="geometry" />
        </mxCell>
        <mxCell id="3hQC-828h82AvjW6x72--118" value="" style="endArrow=classic;html=1;rounded=0;entryX=0.715;entryY=0.992;entryDx=0;entryDy=0;entryPerimeter=0;exitX=0;exitY=0;exitDx=0;exitDy=0;" edge="1" parent="1" source="3hQC-828h82AvjW6x72--77" target="3hQC-828h82AvjW6x72--78">
          <mxGeometry width="50" height="50" relative="1" as="geometry">
            <mxPoint x="680" y="1010" as="sourcePoint" />
            <mxPoint x="730" y="960" as="targetPoint" />
          </mxGeometry>
        </mxCell>
        <mxCell id="3hQC-828h82AvjW6x72--126" style="edgeStyle=orthogonalEdgeStyle;rounded=0;orthogonalLoop=1;jettySize=auto;html=1;exitX=0.5;exitY=1;exitDx=0;exitDy=0;" edge="1" parent="1" source="3hQC-828h82AvjW6x72--120">
          <mxGeometry relative="1" as="geometry">
            <mxPoint x="960" y="650" as="targetPoint" />
            <Array as="points">
              <mxPoint x="960" y="660" />
              <mxPoint x="960" y="660" />
            </Array>
          </mxGeometry>
        </mxCell>
        <mxCell id="3hQC-828h82AvjW6x72--120" value="&lt;span style=&quot;border-bottom: 1px dotted&quot;&gt;Name&lt;/span&gt;" style="ellipse;whiteSpace=wrap;html=1;align=center;" vertex="1" parent="1">
          <mxGeometry x="910" y="590" width="100" height="40" as="geometry" />
        </mxCell>
        <mxCell id="3hQC-828h82AvjW6x72--128" style="edgeStyle=orthogonalEdgeStyle;rounded=0;orthogonalLoop=1;jettySize=auto;html=1;exitX=0;exitY=0.5;exitDx=0;exitDy=0;entryX=1;entryY=0.5;entryDx=0;entryDy=0;" edge="1" parent="1" source="3hQC-828h82AvjW6x72--121" target="3hQC-828h82AvjW6x72--91">
          <mxGeometry relative="1" as="geometry" />
        </mxCell>
        <mxCell id="3hQC-828h82AvjW6x72--121" value="location" style="ellipse;whiteSpace=wrap;html=1;align=center;" vertex="1" parent="1">
          <mxGeometry x="1050" y="650" width="100" height="40" as="geometry" />
        </mxCell>
        <mxCell id="3hQC-828h82AvjW6x72--127" style="edgeStyle=orthogonalEdgeStyle;rounded=0;orthogonalLoop=1;jettySize=auto;html=1;exitX=0;exitY=1;exitDx=0;exitDy=0;entryX=1;entryY=0;entryDx=0;entryDy=0;" edge="1" parent="1" source="3hQC-828h82AvjW6x72--122" target="3hQC-828h82AvjW6x72--91">
          <mxGeometry relative="1" as="geometry" />
        </mxCell>
        <mxCell id="3hQC-828h82AvjW6x72--122" value="Capacity" style="ellipse;whiteSpace=wrap;html=1;align=center;" vertex="1" parent="1">
          <mxGeometry x="1020" y="590" width="100" height="40" as="geometry" />
        </mxCell>
        <mxCell id="3hQC-828h82AvjW6x72--129" style="edgeStyle=orthogonalEdgeStyle;rounded=0;orthogonalLoop=1;jettySize=auto;html=1;exitX=0;exitY=0.5;exitDx=0;exitDy=0;" edge="1" parent="1" source="3hQC-828h82AvjW6x72--125">
          <mxGeometry relative="1" as="geometry">
            <mxPoint x="980" y="690" as="targetPoint" />
            <Array as="points">
              <mxPoint x="990" y="720" />
            </Array>
          </mxGeometry>
        </mxCell>
        <mxCell id="3hQC-828h82AvjW6x72--125" value="schedule" style="ellipse;whiteSpace=wrap;html=1;align=center;" vertex="1" parent="1">
          <mxGeometry x="1020" y="700" width="100" height="40" as="geometry" />
        </mxCell>
      </root>
    </mxGraphModel>
  </diagram>
</mxfile>
